HIERARCHY
ROOT Root
{
	OFFSET 0.00000 0.00000 0.00000
	CHANNELS 6 Xposition Yposition Zposition Zrotation Xrotation Yrotation
	JOINT Hips
	{
		OFFSET 0 0 0	
		CHANNELS 3 Zrotation Xrotation Yrotation
		JOINT Spine
		{
			OFFSET 0 4 0	
			CHANNELS 3 Zrotation Xrotation Yrotation
			JOINT Spine1
			{
				OFFSET 0 19.4 0	
				CHANNELS 3 Zrotation Xrotation Yrotation
				JOINT Spine2
				{
					OFFSET 0 16.6 0	
					CHANNELS 3 Zrotation Xrotation Yrotation
					JOINT LeftCollar
					{
						OFFSET 0 10 0	
						CHANNELS 3 Zrotation Xrotation Yrotation
						JOINT LeftArm
						{
							OFFSET 15.6 -2 3	
							CHANNELS 3 Zrotation Xrotation Yrotation
							JOINT LeftForeArm
							{
								OFFSET 3.5 -27 -1	
								CHANNELS 3 Zrotation Xrotation Yrotation
								JOINT LeftHand
								{
									OFFSET 1 -27 1	
									CHANNELS 3 Zrotation Xrotation Yrotation
									End Site
									{
										OFFSET 0 -15 0
									}
								}
							}
						}
					}
					JOINT RightCollar
					{
						OFFSET 0 10 0	
						CHANNELS 3 Zrotation Xrotation Yrotation
						JOINT RightArm
						{
							OFFSET -15.6 -2 3	
							CHANNELS 3 Zrotation Xrotation Yrotation
							JOINT RightForeArm
							{
								OFFSET -3.5 -27 -1	
								CHANNELS 3 Zrotation Xrotation Yrotation
								JOINT RightHand
								{
									OFFSET -1 -27 1	
									CHANNELS 3 Zrotation Xrotation Yrotation
									End Site
									{
										OFFSET 0 -15 0
									}
								}
							}
						}
					}
					JOINT Neck
					{
						OFFSET 0 10 0	
						CHANNELS 3 Zrotation Xrotation Yrotation
						JOINT Head
						{
							OFFSET 0 12.7 3	
							CHANNELS 3 Zrotation Xrotation Yrotation
							End Site
							{
								OFFSET 0 12.7 3
							}
						}
					}
				}
			}
		}
	}
	JOINT LeftHip
	{
		OFFSET 0 0 0	
		CHANNELS 3 Zrotation Xrotation Yrotation
		JOINT LeftUpLeg
		{
			OFFSET 8.8 -6 0	
			CHANNELS 3 Zrotation Xrotation Yrotation
			JOINT LeftLeg
			{
				OFFSET 0 -39 2	
				CHANNELS 3 Zrotation Xrotation Yrotation
				JOINT LeftFoot
				{
					OFFSET 0 -43 -2	
					CHANNELS 3 Zrotation Xrotation Yrotation
					JOINT LeftFootFront
					{
						OFFSET 0 -7 8.5	
						CHANNELS 3 Zrotation Xrotation Yrotation
						End Site
						{
							OFFSET 0 -0.5 9
						}
					}
				}
				JOINT LeftHeel
				{
					OFFSET 0 -43 -2	
					CHANNELS 3 Zrotation Xrotation Yrotation
					End Site
					{
						OFFSET 0 -7.5 -5
					}
				}
			}
		}
	}
	JOINT RightHip
	{
		OFFSET 0 0 0	
		CHANNELS 3 Zrotation Xrotation Yrotation
		JOINT RightUpLeg
		{
			OFFSET -8.8 -6 0	
			CHANNELS 3 Zrotation Xrotation Yrotation
			JOINT RightLeg
			{
				OFFSET 0 -39 2	
				CHANNELS 3 Zrotation Xrotation Yrotation
				JOINT RightFoot
				{
					OFFSET 0 -43 -2	
					CHANNELS 3 Zrotation Xrotation Yrotation
					JOINT RightFootFront
					{
						OFFSET 0 -7 8.5	
						CHANNELS 3 Zrotation Xrotation Yrotation
						End Site
						{
							OFFSET 0 -0.5 9
						}
					}
				}
				JOINT RightHeel
				{
					OFFSET 0 -43 -2	
					CHANNELS 3 Zrotation Xrotation Yrotation
					End Site
					{
						OFFSET 0 -7.5 -5
					}
				}
			}
		}
	}
}
MOTION
Frames: 13
Frame Time: 0.05
0 95.773 0 -0 0 -0 1.6352 -3.7204 -16.335 -0.57587 1.078 3.9167 -0.57587 1.078 3.9167 -0.47879 0.9082 3.2892 -0 0 -0 -3.8082 -2.7905 -13.692 2.4348 0.67235 0.62775 1.832 -3.8052 3.0899 -0 0 -0 6.2318 -6.9495 11.039 1.3734 -1.2168 3.2824 6.5054 9.4677 -8.544 -6.8543 1.467 -2.2376 -6.8543 1.467 -2.2376 1.6352 -3.7204 -16.335 -0.76544 3.1947 5.4787 -1.2522 -0.14231 11.079 0.054711 0.40274 118.2 1.334e-08 1.7024e-16 1.4623e-06 -0 0 -0 1.6352 -3.7204 -16.335 0.37768 4.6434 -1.8923 -4.1366 -0.53585 -17.682 3.6625 -0.97297 -5.5623 -1.8468e-08 -0.4723 -4.4808e-06 -0 0 -0 
0 95.772 0 -0 0 -0 1.6374 -3.6631 -16.333 -0.56996 1.0328 3.9237 -0.56996 1.0328 3.9237 -0.47403 0.87023 3.2951 -0 0 -0 -3.8155 -2.7454 -13.729 2.4383 0.71341 0.57396 1.836 -3.8133 3.1621 -0 0 -0 6.2472 -6.8919 10.965 1.3425 -1.2524 3.325 6.5278 9.5177 -8.5464 -6.8549 1.5031 -2.2428 -6.8549 1.5031 -2.2428 1.6374 -3.6631 -16.333 -0.74715 3.1273 5.4668 -1.244 -0.13482 11.094 0.044585 0.40936 118.2 -0.00023285 0.00019685 -7.6776e-05 -0 0 -0 1.6374 -3.6631 -16.333 0.39525 4.5816 -1.8906 -4.1455 -0.52115 -17.692 3.6701 -0.97894 -5.5554 0.0002838 -0.47171 -0.0072262 -0 0 -0 
0 95.771 0 -0 0 -0 1.6414 -3.6006 -16.332 -0.56757 0.9825 3.931 -0.56757 0.9825 3.931 -0.47224 0.82795 3.3013 -0 0 -0 -3.8133 -2.6947 -13.765 2.4366 0.74742 0.51801 1.8663 -3.8274 3.1634 -0 0 -0 6.2709 -6.8248 10.89 1.3135 -1.2888 3.3684 6.4873 9.5288 -8.5078 -6.8505 1.5431 -2.2473 -6.8505 1.5431 -2.2473 1.6414 -3.6006 -16.332 -0.7455 3.0575 5.4701 -1.2196 -0.13306 11.096 0.034522 0.41689 118.19 -0.0027584 0.0029601 0.00012965 -0 0 -0 1.6414 -3.6006 -16.332 0.41242 4.5141 -1.8871 -4.1537 -0.50299 -17.697 3.6777 -0.99497 -5.5607 -0.0049149 -0.46578 -0.0058612 -0 0 -0 
0 95.769 0 -0 0 -0 1.6552 -3.5391 -16.337 -0.56879 0.94388 3.9303 -0.56879 0.94388 3.9303 -0.47344 0.79551 3.3008 -0 0 -0 -3.8262 -2.6951 -13.762 2.4705 0.74462 0.46203 1.8682 -3.7887 3.1466 -0 0 -0 6.3014 -6.7786 10.914 1.2739 -1.2981 3.4028 6.455 9.4992 -8.5214 -6.8503 1.5702 -2.2429 -6.8503 1.5702 -2.2429 1.6552 -3.5391 -16.337 -0.74757 2.9903 5.4668 -1.205 -0.14366 11.101 0.027671 0.4285 118.19 -0.0048321 0.0056983 0.0025007 -0 0 -0 1.6552 -3.5391 -16.337 0.41111 4.4456 -1.8603 -4.152 -0.48833 -17.719 3.6771 -1.0092 -5.5631 -0.0032398 -0.45643 -0.0028169 -0 0 -0 
0 95.768 0 -0 0 -0 1.6723 -3.4765 -16.35 -0.57315 0.89892 3.9365 -0.57315 0.89892 3.9365 -0.47731 0.75778 3.306 -0 0 -0 -3.8199 -2.6313 -13.851 2.4524 0.71823 0.53797 1.9203 -3.7616 3.0887 -0 0 -0 6.3026 -6.689 10.937 1.2525 -1.3183 3.3958 6.4653 9.4617 -8.5213 -6.8429 1.6237 -2.2497 -6.8429 1.6237 -2.2497 1.6723 -3.4765 -16.35 -0.73981 2.9162 5.4739 -1.196 -0.12867 11.088 0.0087622 0.41932 118.22 -0.0037115 0.0048703 0.0047665 -0 0 -0 1.6723 -3.4765 -16.35 0.40419 4.3628 -1.8536 -4.1484 -0.46312 -17.714 3.678 -1.0254 -5.5622 -0.00013516 -0.44738 -0.0051528 -0 0 -0 
0 95.766 0 -0 0 -0 1.6869 -3.4182 -16.361 -0.58895 0.86483 3.9499 -0.58895 0.86483 3.9499 -0.49072 0.72921 3.3173 -0 0 -0 -3.7857 -2.5961 -13.946 2.4145 0.63884 0.63261 1.9893 -3.7059 3.0282 -0 0 -0 6.3591 -6.6542 10.9 1.2124 -1.3551 3.3886 6.4396 9.4931 -8.4566 -6.8166 1.6672 -2.2681 -6.8166 1.6672 -2.2681 1.6869 -3.4182 -16.361 -0.73562 2.8407 5.4581 -1.1734 -0.11268 11.088 -0.017144 0.41714 118.25 -0.0037254 0.005928 0.0029518 -0 0 -0 1.6869 -3.4182 -16.361 0.41121 4.271 -1.8386 -4.1547 -0.42082 -17.722 3.6803 -1.0426 -5.5585 -0.0027535 -0.4389 -0.0057449 -0 0 -0 
0 95.764 0 -0 0 -0 1.6998 -3.3648 -16.381 -0.59804 0.85023 3.9713 -0.59804 0.85023 3.9713 -0.49841 0.71701 3.3353 -0 0 -0 -3.7984 -2.6431 -13.967 2.448 0.61954 0.59448 1.9838 -3.7114 3.0529 -0 0 -0 6.3995 -6.681 10.849 1.1654 -1.2954 3.4484 6.4123 9.4214 -8.4644 -6.804 1.6694 -2.2954 -6.804 1.6694 -2.2954 1.6998 -3.3648 -16.381 -0.73776 2.7746 5.4623 -1.1639 -0.106 11.086 -0.024516 0.41535 118.27 -0.0049908 0.0032956 0.002332 -0 0 -0 1.6998 -3.3648 -16.381 0.40732 4.183 -1.8318 -4.1556 -0.36537 -17.716 3.6885 -1.073 -5.552 -0.0060495 -0.42797 -0.0046279 -0 0 -0 
0 95.762 0 -0 0 -0 1.705 -3.3392 -16.398 -0.6235 0.821 4.011 -0.6235 0.821 4.011 -0.51989 0.6926 3.3686 -0 0 -0 -3.7566 -2.6067 -14.045 2.5111 0.62311 0.59287 1.9585 -3.7288 3.0399 -0 0 -0 6.4192 -6.66 10.775 1.1966 -1.2149 3.4367 6.3657 9.3453 -8.4427 -6.7575 1.6996 -2.3435 -6.7575 1.6996 -2.3435 1.705 -3.3392 -16.398 -0.7396 2.7436 5.467 -1.1586 -0.11443 11.1 -0.024245 0.42206 118.27 -0.000581 0.0017307 0.001396 -0 0 -0 1.705 -3.3392 -16.398 0.41446 4.1585 -1.8172 -4.1747 -0.35135 -17.723 3.6993 -1.0894 -5.5471 -0.0087975 -0.42335 -0.0015513 -0 0 -0 
0 95.761 0 -0 0 -0 1.6994 -3.3411 -16.401 -0.63842 0.80691 4.0257 -0.63842 0.80691 4.0257 -0.53248 0.68085 3.3809 -0 0 -0 -3.7456 -2.5627 -14.106 2.4881 0.61143 0.64218 2.0359 -3.7144 3.0189 -0 0 -0 6.4538 -6.5858 10.757 1.1804 -1.2559 3.4025 6.3094 9.3701 -8.3983 -6.7273 1.7237 -2.3626 -6.7273 1.7237 -2.3626 1.6994 -3.3411 -16.401 -0.74239 2.7164 5.4721 -1.1406 -0.092121 11.09 -0.031583 0.42948 118.28 -0.0034812 0.0040889 -0.00015601 -0 0 -0 1.6994 -3.3411 -16.401 0.41898 4.1374 -1.7978 -4.1904 -0.3201 -17.748 3.7059 -1.097 -5.539 -0.0092723 -0.41379 -0.00043956 -0 0 -0 
0 95.759 0 -0 0 -0 1.7031 -3.3339 -16.391 -0.65489 0.76777 4.022 -0.65489 0.76777 4.022 -0.5465 0.64805 3.3778 -0 0 -0 -3.7348 -2.46 -14.084 2.5293 0.58443 0.62498 2.0416 -3.6832 3.0336 -0 0 -0 6.5194 -6.4532 10.722 1.1389 -1.2879 3.4392 6.288 9.4135 -8.3815 -6.7082 1.7714 -2.3552 -6.7082 1.7714 -2.3552 1.7031 -3.3339 -16.391 -0.75575 2.6773 5.4727 -1.1234 -0.067315 11.097 -0.034326 0.43011 118.26 -0.012957 0.0073743 0.0024348 -0 0 -0 1.7031 -3.3339 -16.391 0.42566 4.1109 -1.7935 -4.2147 -0.29811 -17.761 3.711 -1.1128 -5.5398 -0.0058776 -0.39459 -0.0016718 -0 0 -0 
0 95.759 0 -0 0 -0 1.7114 -3.3263 -16.376 -0.66546 0.75436 4.0243 -0.66546 0.75436 4.0243 -0.55544 0.63683 3.3798 -0 0 -0 -3.7551 -2.4127 -14.096 2.5901 0.53894 0.64282 2.0156 -3.6341 3.0066 -0 0 -0 6.565 -6.483 10.685 1.1215 -1.2134 3.4509 6.2369 9.3741 -8.3541 -6.7211 1.7918 -2.3561 -6.7211 1.7918 -2.3561 1.7114 -3.3263 -16.376 -0.77123 2.6565 5.4635 -1.1122 -0.061259 11.109 -0.033564 0.41953 118.25 -0.01254 0.0076525 0.0048013 -0 0 -0 1.7114 -3.3263 -16.376 0.42327 4.0895 -1.7855 -4.2322 -0.28017 -17.771 3.7189 -1.1287 -5.5537 -0.00015603 -0.37987 -0.0025753 -0 0 -0 
0 95.758 0 -0 0 -0 1.7137 -3.3201 -16.361 -0.66901 0.73169 4.0224 -0.66901 0.73169 4.0224 -0.55854 0.6178 3.3782 -0 0 -0 -3.7725 -2.3413 -14.11 2.6266 0.49794 0.68904 1.9945 -3.5785 2.9596 -0 0 -0 6.5163 -6.4051 10.699 1.1549 -1.215 3.4504 6.2107 9.3309 -8.3622 -6.7198 1.8286 -2.349 -6.7198 1.8286 -2.349 1.7137 -3.3201 -16.361 -0.7774 2.6152 5.4646 -1.1025 -0.037777 11.095 -0.032326 0.41561 118.25 -0.0093888 0.0039309 0.0038953 -0 0 -0 1.7137 -3.3201 -16.361 0.42762 4.04 -1.7939 -4.2536 -0.22187 -17.764 3.7381 -1.1449 -5.5658 0.00032997 -0.37374 -0.0064175 -0 0 -0 
0 95.758 0 -0 0 -0 1.7197 -3.3127 -16.354 -0.67179 0.72171 4.0242 -0.67179 0.72171 4.0242 -0.56092 0.60943 3.3797 -0 0 -0 -3.8033 -2.3205 -14.106 2.6608 0.42953 0.74117 1.9936 -3.5261 2.9246 -0 0 -0 6.5481 -6.356 10.705 1.1199 -1.2218 3.4597 6.1852 9.3267 -8.3606 -6.7197 1.8493 -2.3477 -6.7197 1.8493 -2.3477 1.7197 -3.3127 -16.354 -0.78091 2.5875 5.4681 -1.0999 -0.03558 11.099 -0.028525 0.42217 118.24 -0.0025698 0.0056778 0.0034916 -0 0 -0 1.7197 -3.3127 -16.354 0.42104 4.0073 -1.7864 -4.264 -0.20016 -17.769 3.7494 -1.1421 -5.5806 0.0019482 -0.37069 -0.0055179 -0 0 -0 
